<svg width="128" height="128" viewBox="0 0 128 128" fill="none" xmlns="http://www.w3.org/2000/svg">
  <defs>
    <linearGradient id="g1" x1="22" y1="10" x2="74" y2="86" gradientUnits="userSpaceOnUse">
      <stop stop-color="#27B7D4"/>
      <stop offset="1" stop-color="#0A5FAA"/>
    </linearGradient>
    <linearGradient id="g2" x1="52" y1="54" x2="115" y2="111" gradientUnits="userSpaceOnUse">
      <stop stop-color="#8FD13E"/>
      <stop offset="1" stop-color="#2F8E3A"/>
    </linearGradient>
  </defs>
  <path d="M62 8C35 20 16 48 16 77c0 19 9 34 24 43-9-22-4-47 13-68 9-12 13-24 9-44z" fill="url(#g1)"/>
  <path d="M31 97c17-7 33-6 48 2 16 8 28 8 40 3-6 14-20 22-40 24-23 1-39-7-48-29z" fill="url(#g2)"/>
  <path d="M84 27c15 12 24 29 24 46 0 18-8 34-22 46 4-16 2-31-7-46-8-15-8-29 5-46z" fill="#0E7ABF"/>
</svg>
